<svg id="Layer_1" data-name="Layer 1" xmlns="http://www.w3.org/2000/svg" viewBox="0 0 200 200"><defs><style>.cls-1{fill:#f28f3b;}.cls-2{fill:#353b47;}</style></defs><title>music</title><rect class="cls-1" width="200" height="200"/><rect class="cls-2" x="15" y="15" width="170" height="170"/><path class="cls-1" d="M150.17,118.12V67.51H79.8V69q0,34.41,0,68.83a22.09,22.09,0,0,1-3.48,12.54,21,21,0,0,1-15.18,9.83C51,161.58,42.2,156.7,37.82,147.38a21.82,21.82,0,0,1,5-24.68c6.46-5.91,14-7.42,22.29-4.79.26.08.53.14.91.24V40h98v1.13q0,48.48,0,97c0,9.41-4.4,16.29-12.86,20.44-8.2,4-19,1.76-25.1-5.06-6.3-7.08-7.71-16.4-3.46-24.75A21,21,0,0,1,138.8,117C142.52,116.37,143.91,116.58,150.17,118.12Z"/></svg>