<svg id="Layer_1" data-name="Layer 1" xmlns="http://www.w3.org/2000/svg" viewBox="0 0 200 200"><defs><style>.cls-1{fill:#f28f3b;}.cls-2{fill:#353b47;}</style></defs><title>film</title><rect class="cls-1" width="200" height="200"/><rect class="cls-2" x="15" y="15" width="170" height="170"/><path class="cls-1" d="M56.91,170c-.91-1.77-2.6-3.53-2.62-5.3-.19-19.13-.11-38.27-.1-57.4a9,9,0,0,1,.19-1.31c10-2.12,13.43-5.54,15.38-15.39h88.47c.07,1.11.19,2.12.19,3.13,0,23.33,0,46.66.06,70,0,2.67-.58,4.78-2.87,6.27Zm40.45-60.22c6,0,11.17,0,16.39,0a2.78,2.78,0,0,0,2.07-.81c2.65-4.17,5.15-8.43,8-13.16-5.91,0-11.12,0-16.32.06a3.11,3.11,0,0,0-2.2,1.23C102.71,101,100.26,105.1,97.36,109.78Zm55.17-14c-5.8,0-10.8,0-15.8,0a3.6,3.6,0,0,0-2.62,1.1c-2.66,4-5.13,8.2-8,12.85,6,0,11.47,0,16.88,0a2.26,2.26,0,0,0,1.66-.93C147.22,104.68,149.68,100.52,152.53,95.77Zm-57.32,0c-6,0-11.34,0-16.65,0a2,2,0,0,0-1.46.67c-2.72,4.25-5.37,8.54-8.34,13.3,5.75,0,10.73.08,15.71-.07a4,4,0,0,0,2.75-1.52C89.84,104.37,92.26,100.41,95.21,95.78Z"/><path class="cls-1" d="M140.91,30c.83.8,2,1.44,2.44,2.41,2.29,5.22,4.4,10.52,6.55,15.8.39.95.66,1.94,1.08,3.18L68.83,84.6c-4.42-8.11-11.18-10.82-20-8.53-.54-1.16-1.08-2.18-1.51-3.24-1.56-3.85-.78-5.75,3.19-7.36,15.42-6.24,30.86-12.41,46.29-18.65Q117.45,38.45,138.11,30ZM116.79,59.3c-4.39-3.19-8.11-6-11.94-8.61a3.53,3.53,0,0,0-2.78-.38c-4.88,1.82-9.7,3.81-15,5.94,4.4,3.19,8.41,6.14,12.48,9a2.38,2.38,0,0,0,1.92.19C106.38,63.51,111.3,61.5,116.79,59.3ZM60.44,67c4.43,3.23,8.23,6.08,12.12,8.78a3.22,3.22,0,0,0,2.58.26c4.84-1.83,9.63-3.81,15-6C85.8,66.91,81.92,64,77.93,61.27a3.2,3.2,0,0,0-2.56-.18C70.61,62.9,65.9,64.84,60.44,67Zm83-18.51c-4.38-3.21-8.2-6.05-12.07-8.82a2.46,2.46,0,0,0-1.9-.45c-5,2-10,4-15.48,6.24,4.27,3.13,8,5.95,11.8,8.59a3.51,3.51,0,0,0,2.81.36C133.36,52.65,138.08,50.67,143.41,48.52Z"/><path class="cls-1" d="M54.32,79.68a10.78,10.78,0,0,1,11,10.71,11,11,0,0,1-11,10.84A10.87,10.87,0,0,1,43.6,90.6,10.74,10.74,0,0,1,54.32,79.68Z"/></svg>