<svg id="Layer_1" data-name="Layer 1" xmlns="http://www.w3.org/2000/svg" viewBox="0 0 200 200"><defs><style>.cls-1{fill:#f28f3b;}.cls-2{fill:#353b47;}</style></defs><title>art</title><rect class="cls-1" width="200" height="200"/><rect class="cls-2" x="15" y="15" width="170" height="170"/><path class="cls-1" d="M94.57,49.5c.69-1.7,1.27-3.45,2.09-5.08,2.22-4.45,5.06-5.58,9.77-4,1,.32,1.92.67,2.89,1a80.24,80.24,0,0,0,19.93,3.95A85.73,85.73,0,0,0,161.44,42c3.37-1,6,.07,7.83,3.09,2.18,3.58,2.78,7.63,3.21,11.69a120.59,120.59,0,0,1,0,22.64c-.43,5.26-.69,10.62-1.92,15.72-3.91,16.22-13.39,28.25-28.28,36-7.91,4.1-15.6,3.9-23.21-.78-16.62-10.22-25.49-25.13-26.6-44.52a149.65,149.65,0,0,1,1-29.46,9.6,9.6,0,0,0,0-1.42ZM127,116.26a31.77,31.77,0,0,0,3.45.36c7.39.14,13.63-2.19,17.8-8.65a24.23,24.23,0,0,0,1.87-4.07,1.23,1.23,0,0,0-.23-1c-.11-.14-.67-.08-.9.08-4.14,2.86-8.9,3.5-13.72,3.56-7.72.1-15.45,0-22.13-4.82-.78-.56-1.21,0-1.09.84a11.41,11.41,0,0,0,.69,2.36C115.3,111.14,120.09,114.67,127,116.26Zm12-41.77c-.77,3.7,1.38,6.41,5.11,6.26a27.61,27.61,0,0,0,10.61-2.82c3.29-1.52,3.69-5,.73-7A11.82,11.82,0,0,0,143,69.67,6.77,6.77,0,0,0,139,74.49Zm-20.24,6,.1-.21c.82.08,1.64.18,2.46.24A4.18,4.18,0,0,0,126,77.16c.83-2.83-.14-5.06-2.28-6.86-3.6-3-10.28-3.14-14-.26-2.6,2-2.47,5.31.44,6.77S115.85,79.24,118.71,80.44Z"/><path class="cls-1" d="M85.19,92.14a148.89,148.89,0,0,1,1-29.46,13.42,13.42,0,0,0,0-1.42l.65-3.12C85.4,58,84,58,82.51,57.93A54,54,0,0,0,64.9,60.64a52.33,52.33,0,0,0-35.64,53.58,50.28,50.28,0,0,0,8.84,25.72c9.89,14.25,23.65,21.82,40.93,23a15.24,15.24,0,0,0,4.53-.23c6.5-1.59,8.91-9.54,4.73-14.06a8.66,8.66,0,0,1,6.46-14.79c2.92,0,5.85,0,8.78,0,1.29,0,2.58,0,3.86-.13Q86.74,118.59,85.19,92.14ZM49.56,110.45a8.74,8.74,0,1,1,8.69-8.71A9,9,0,0,1,49.56,110.45ZM67,87.08a8.73,8.73,0,1,1,8.75-8.74A9,9,0,0,1,67,87.08Z"/></svg>