<svg id="Layer_1" data-name="Layer 1" xmlns="http://www.w3.org/2000/svg" viewBox="0 0 200 200"><defs><style>.cls-1{fill:#f28f3b;}.cls-2{fill:#353b47;}</style></defs><title>misc</title><rect class="cls-1" width="200" height="200"/><rect class="cls-2" x="15" y="15" width="170" height="170"/><path class="cls-1" d="M109.78,162.06H84.21c1.86-16.07,3.7-31.93,5.64-48.71L50.33,142.74c-4.27-7.39-8.42-14.6-12.8-22.19L82.71,101,37.54,81.45,50.33,59.26,89.84,88.65C87.91,71.92,86.08,56.08,84.22,40h25.55c-1.86,16-3.69,31.86-5.64,48.66l39.51-29.38,12.83,22.16L111.28,101l45.18,19.54c-4.3,7.46-8.5,14.72-12.81,22.19l-39.52-29.39C106.07,130.06,107.9,145.85,109.78,162.06Z"/></svg>